name Walk5.mot
datacolumns 19
datarows 27
range 1.04000000 1.17000000
endheader

                time	   L_ground_force_vx	   L_ground_force_vy	   L_ground_force_vz	   L_ground_force_px	   L_ground_force_py	   L_ground_force_pz	   R_ground_force_vx	   R_ground_force_vy	   R_ground_force_vz	   R_ground_force_px	   R_ground_force_py	   R_ground_force_pz	   L_ground_torque_x	   L_ground_torque_y	   L_ground_torque_z	   R_ground_torque_x	   R_ground_torque_y	   R_ground_torque_z	
          1.04000000	          8.19107711	        720.31069367	         32.66845891	         -0.36015039	          0.00000000	         -0.04277331	         -0.01794595	          0.20699989	          0.00830915	          0.00011963	          0.00000000	          0.00009565	          0.00000000	         -2.00189199	          0.00000000	          0.00000000	         -0.00163015	          0.00000000	
          1.04500000	         10.03888696	        728.97153913	         33.34279940	         -0.35826739	          0.00000000	         -0.04264343	         -0.02544401	          0.26081918	          0.01082103	          0.00013600	          0.00000000	          0.00010787	          0.00000000	         -2.07432360	          0.00000000	          0.00000000	         -0.00164755	          0.00000000	
          1.05000000	         12.03642262	        737.99626377	         34.08118657	         -0.35648149	          0.00000000	         -0.04250778	         -0.03399838	          0.31257757	          0.01340345	          0.00014476	          0.00000000	          0.00011361	          0.00000000	         -2.12819905	          0.00000000	          0.00000000	         -0.00147150	          0.00000000	
          1.05500000	         14.21893604	        747.34275575	         34.84915147	         -0.35480283	          0.00000000	         -0.04236278	         -0.04314494	          0.35473896	          0.01577742	          0.00014057	          0.00000000	          0.00010856	          0.00000000	         -2.16619086	          0.00000000	          0.00000000	         -0.00101549	          0.00000000	
          1.06000000	         16.61851159	        756.95218697	         35.60239611	         -0.35323985	          0.00000000	         -0.04220527	         -0.05208692	          0.37673529	          0.01753353	          0.00011669	          0.00000000	          0.00008729	          0.00000000	         -2.19261155	          0.00000000	          0.00000000	         -0.00017916	          0.00000000	
          1.06500000	         19.26328025	        766.74772531	         36.29375956	         -0.35179804	          0.00000000	         -0.04203279	         -0.05960707	          0.36457390	          0.01810959	          0.00006507	          0.00000000	          0.00004336	          0.00000000	         -2.21284791	          0.00000000	          0.00000000	          0.00114709	          0.00000000	
          1.07000000	         22.17550811	        776.64242623	         36.88166898	         -0.35047921	          0.00000000	         -0.04184580	         -0.06398262	          0.30064746	          0.01677448	         -0.00002345	          0.00000000	         -0.00003050	          0.00000000	         -2.23248965	          0.00000000	          0.00000000	          0.00307374	          0.00000000	
          1.07500000	         25.36936683	        786.55003754	         37.33606268	         -0.34928147	          0.00000000	         -0.04164700	         -0.06291492	          0.16388361	          0.01262376	         -0.00015859	          0.00000000	         -0.00014190	          0.00000000	         -2.25651631	          0.00000000	          0.00000000	          0.00569906	          0.00000000	
          1.08000000	         28.84768597	        796.38984699	         37.64067742	         -0.34820055	          0.00000000	         -0.04143978	         -0.05349078	         -0.06959463	          0.00459436	         -0.00034978	          0.00000000	         -0.00029812	          0.00000000	         -2.28871446	          0.00000000	          0.00000000	          0.00909006	          0.00000000	
          1.08500000	         32.60060554	        806.09023128	         37.79348575	         -0.34722913	          0.00000000	         -0.04122869	         -0.03219805	         -0.42509288	         -0.00849314	         -0.00060477	          0.00000000	         -0.00050497	          0.00000000	         -2.33103768	          0.00000000	          0.00000000	          0.01325687	          0.00000000	
          1.09000000	         36.60810410	        815.58774548	         37.80556645	         -0.34635771	          0.00000000	         -0.04101879	          0.00497632	         -0.92702375	         -0.02785409	         -0.00092782	          0.00000000	         -0.00076523	          0.00000000	         -2.38388148	          0.00000000	          0.00000000	          0.01811955	          0.00000000	
          1.09500000	         40.84196358	        824.82657681	         37.70101650	         -0.34557501	          0.00000000	         -0.04081535	          0.06233155	         -1.59539651	         -0.05460996	         -0.00131714	          0.00000000	         -0.00107672	          0.00000000	         -2.44588825	          0.00000000	          0.00000000	          0.02346768	          0.00000000	
          1.10000000	         45.26999353	        833.75942224	         37.51481341	         -0.34486789	          0.00000000	         -0.04062306	          0.14408291	         -2.44088624	         -0.08959758	         -0.00176181	          0.00000000	         -0.00142965	          0.00000000	         -2.51387418	          0.00000000	          0.00000000	          0.02891321	          0.00000000	
          1.10500000	         49.85948972	        842.34495115	         37.28815340	         -0.34422354	          0.00000000	         -0.04044492	          0.25379485	         -3.45829596	         -0.13310668	         -0.00223793	          0.00000000	         -0.00180368	          0.00000000	         -2.58392534	          0.00000000	          0.00000000	          0.03383905	          0.00000000	
          1.11000000	         54.57896231	        850.54501555	         37.06351473	         -0.34362980	          0.00000000	         -0.04028211	          0.39357740	         -4.61831902	         -0.18453808	         -0.00270438	          0.00000000	         -0.00216450	          0.00000000	         -2.65132856	          0.00000000	          0.00000000	          0.03734701	          0.00000000	
          1.11500000	         59.40024842	        858.31652075	         36.87972716	         -0.34307487	          0.00000000	         -0.04013479	          0.56301232	         -5.85766704	         -0.24198044	         -0.00309824	          0.00000000	         -0.00246022	          0.00000000	         -2.71098776	          0.00000000	          0.00000000	          0.03821131	          0.00000000	
          1.12000000	         64.29813959	        865.60399495	         36.77017549	         -0.34254884	          0.00000000	         -0.04000377	          0.75779046	         -7.06786635	         -0.30171191	         -0.00333030	          0.00000000	         -0.00261793	          0.00000000	         -2.75861155	          0.00000000	          0.00000000	          0.03484655	          0.00000000	
          1.12500000	         69.25089868	        872.34020380	         36.76195901	         -0.34204284	          0.00000000	         -0.03989003	          0.96806671	         -8.08336022	         -0.35764640	         -0.00328146	          0.00000000	         -0.00254100	          0.00000000	         -2.79066031	          0.00000000	          0.00000000	          0.02530206	          0.00000000	
          1.13000000	         74.24134725	        878.44354121	         36.87395736	         -0.34154871	          0.00000000	         -0.03979428	          1.17657742	         -8.66999546	         -0.40076167	         -0.00280061	          0.00000000	         -0.00210766	          0.00000000	         -2.80450168	          0.00000000	          0.00000000	          0.00729812	          0.00000000	
          1.13500000	         79.25576091	        883.81169416	         37.11620404	         -0.34105958	          0.00000000	         -0.03971697	          1.35661974	         -8.51552865	         -0.41856957	         -0.00170538	          0.00000000	         -0.00117199	          0.00000000	         -2.79845992	          0.00000000	          0.00000000	         -0.02167693	          0.00000000	
          1.14000000	         84.28259813	        888.32250743	         37.48910607	         -0.34056919	          0.00000000	         -0.03965756	          1.47006479	         -7.22445245	         -0.39471747	          0.00021282	          0.00000000	          0.00043162	          0.00000000	         -2.77124485	          0.00000000	          0.00000000	         -0.06418665	          0.00000000	
          1.14500000	         89.31030802	        891.83863412	         37.98303610	         -0.34007221	          0.00000000	         -0.03961480	          1.46566842	         -4.32019656	         -0.30884324	          0.00317778	          0.00000000	          0.00287902	          0.00000000	         -2.72206038	          0.00000000	          0.00000000	         -0.12255943	          0.00000000	
          1.15000000	         94.32553558	        894.21548708	         38.57893653	         -0.33956357	          0.00000000	         -0.03958776	          1.27805474	          0.74144270	         -0.13684367	          0.00740936	          0.00000000	          0.00634039	          0.00000000	         -2.65067401	          0.00000000	          0.00000000	         -0.19846974	          0.00000000	
          1.15500000	         99.31196625	        895.30211043	         39.24864410	         -0.33903809	          0.00000000	         -0.03957462	          0.82787374	          8.54301956	          0.14824564	          0.01309422	          0.00000000	          0.01095603	          0.00000000	         -2.55810488	          0.00000000	          0.00000000	         -0.29236585	          0.00000000	
          1.16000000	        104.24816632	        894.94367344	         39.95663439	         -0.33849015	          0.00000000	         -0.03957221	          0.02377055	         19.65504601	          0.57452527	          0.02034419	          0.00000000	          0.01680238	          0.00000000	         -2.44647475	          0.00000000	          0.00000000	         -0.40272862	          0.00000000	
          1.16500000	        109.10684955	        892.98655917	         40.66211709	         -0.33791421	          0.00000000	         -0.03957699	         -1.23306324	         34.55889551	          1.16840199	          0.02914064	          0.00000000	          0.02384685	          0.00000000	         -2.31848200	          0.00000000	          0.00000000	         -0.52515833	          0.00000000	
          1.17000000	        113.85582207	        889.28449405	         41.32066698	         -0.33730583	          0.00000000	         -0.03958581	         -3.04087303	         53.53757378	          1.95038451	          0.03926378	          0.00000000	          0.03189086	          0.00000000	         -2.17732019	          0.00000000	          0.00000000	         -0.65130597	          0.00000000	
